<svg width="14" height="14" viewBox="0 0 14 14" fill="none" xmlns="http://www.w3.org/2000/svg">
<path fill-rule="evenodd" clip-rule="evenodd" d="M11.2071 4.20711C11.5976 3.81658 11.5976 3.18342 11.2071 2.79289C10.8166 2.40237 10.1834 2.40237 9.79289 2.79289L7 5.58579L4.20711 2.79289C3.81658 2.40237 3.18342 2.40237 2.79289 2.79289C2.40237 3.18342 2.40237 3.81658 2.79289 4.20711L5.58579 7L2.79289 9.79289C2.40237 10.1834 2.40237 10.8166 2.79289 11.2071C3.18342 11.5976 3.81658 11.5976 4.20711 11.2071L7 8.41421L9.79289 11.2071C10.1834 11.5976 10.8166 11.5976 11.2071 11.2071C11.5976 10.8166 11.5976 10.1834 11.2071 9.79289L8.41421 7L11.2071 4.20711Z" fill="#8D8FA6"/>
</svg>
